<svg xmlns="http://www.w3.org/2000/svg" xmlns:xlink="http://www.w3.org/1999/xlink" width="40" zoomAndPan="magnify" viewBox="0 0 30 30.000001" height="40" preserveAspectRatio="xMidYMid meet" version="1.0"><defs><clipPath id="8f75901d93"><path d="M 3 2.445312 L 27 2.445312 L 27 26.394531 L 3 26.394531 Z M 3 2.445312 " clip-rule="nonzero"/></clipPath></defs><g clip-path="url(#8f75901d93)"><path fill="#000000" d="M 14.109375 26.21875 C 9.199219 25.882812 4.886719 21.988281 3.671875 17.277344 C 2.550781 12.390625 4.777344 6.886719 9.128906 4.335938 C 11.925781 2.652344 15.4375 2.441406 18.535156 3.320312 C 22.359375 4.5 25.269531 7.925781 26.292969 11.742188 C 27.210938 15.261719 26.550781 19.257812 24.109375 22.03125 C 21.898438 24.800781 18.363281 26.394531 14.832031 26.253906 C 14.589844 26.25 14.351562 26.238281 14.109375 26.21875 Z M 17.035156 25.667969 C 17.917969 25.589844 17.761719 25.316406 16.960938 25.25 C 15.527344 24.972656 13.984375 24.964844 12.601562 25.449219 C 13.816406 26.039062 15.433594 25.886719 16.796875 25.710938 Z M 12.699219 24.886719 C 13.328125 24.242188 12.671875 22.699219 12.121094 22.089844 C 10.894531 21.460938 9.941406 20.429688 8.816406 19.652344 C 7.972656 19.34375 7.148438 19.933594 6.328125 20.132812 C 6.324219 20.945312 6.273438 21.863281 6.984375 22.425781 C 8.15625 23.589844 9.566406 24.605469 11.164062 25.070312 C 11.675781 25.09375 12.210938 25.0625 12.699219 24.886719 Z M 19.429688 24.921875 C 21.46875 24.035156 23.378906 22.617188 24.527344 20.6875 C 24.941406 20.128906 25.246094 19.15625 24.164062 19.480469 C 22.808594 20.335938 21.582031 21.398438 20.191406 22.210938 C 19.347656 22.882812 18.742188 23.804688 18.140625 24.6875 C 18.351562 25.175781 19.03125 25.058594 19.429688 24.921875 Z M 20.8125 21.371094 C 21.835938 20.527344 23.316406 19.984375 23.855469 18.703125 C 24.097656 17.695312 24.117188 16.652344 24.21875 15.625 C 23.199219 14.714844 21.945312 14.09375 20.71875 13.511719 C 19.507812 13.609375 18.53125 14.691406 17.570312 15.390625 C 17.0625 15.675781 17.191406 16.3125 17.054688 16.796875 C 16.867188 17.9375 16.652344 19.078125 16.53125 20.226562 C 17.484375 20.933594 18.546875 21.585938 19.707031 21.859375 C 20.125 21.863281 20.472656 21.578125 20.8125 21.371094 Z M 13.507812 21.550781 C 14.433594 21.195312 15.660156 20.925781 16.097656 19.9375 C 16.417969 18.554688 16.597656 17.136719 16.769531 15.726562 C 15.847656 14.847656 14.863281 13.917969 13.65625 13.460938 C 12.613281 13.441406 11.730469 14.183594 10.804688 14.585938 C 9.554688 14.929688 9.121094 16.070312 9.066406 17.246094 C 8.699219 18.410156 9.121094 19.609375 10.171875 20.25 C 11.09375 20.933594 12.273438 22.019531 13.507812 21.550781 Z M 5.742188 19.917969 C 4.988281 18.519531 4.472656 16.988281 4.265625 15.410156 C 3.519531 15.5625 4.195312 17.398438 4.402344 18.144531 C 4.753906 19.15625 5.289062 20.085938 5.84375 20.996094 C 5.949219 20.621094 6.007812 20.25 5.742188 19.917969 Z M 5.417969 13.691406 C 5.746094 13.222656 6.269531 12.847656 6.46875 12.308594 C 6.816406 10.679688 7.382812 9.105469 8.195312 7.648438 C 8.160156 6.707031 7.113281 6.132812 6.589844 7.171875 C 5.105469 9.09375 3.941406 11.433594 3.890625 13.90625 C 3.695312 14.753906 4.429688 15.367188 4.851562 14.367188 C 5.039062 14.140625 5.230469 13.917969 5.417969 13.691406 Z M 24.550781 14.859375 C 25.179688 14.03125 26.050781 13.046875 25.824219 11.921875 C 25.429688 9.789062 24.339844 7.765625 22.667969 6.375 C 22.167969 6.164062 21.261719 5.386719 20.914062 6.121094 C 20.402344 7.109375 19.125 8.042969 19.585938 9.277344 C 19.980469 10.492188 20.265625 11.761719 20.839844 12.90625 C 21.898438 13.734375 23.121094 14.375 24.347656 14.917969 Z M 10.503906 14.308594 C 11.476562 13.8125 12.425781 13.265625 13.375 12.726562 C 13.695312 11.605469 14.097656 10.503906 14.472656 9.398438 C 14.527344 8.203125 13.464844 7.34375 12.753906 6.503906 C 12.054688 5.382812 10.875 6.246094 10.011719 6.65625 C 8.117188 7.671875 7.679688 9.910156 7.039062 11.777344 C 7.125 12.476562 7.765625 13.0625 8.230469 13.585938 C 8.875 14.234375 9.597656 15.101562 10.503906 14.308594 Z M 17.496094 8.265625 C 18 8.195312 18.5625 8.246094 19.03125 8.101562 C 19.730469 7.34375 20.347656 6.457031 20.640625 5.464844 C 20.289062 4.460938 19.121094 4.003906 18.183594 3.660156 C 16.992188 3.304688 15.714844 3.128906 14.476562 3.269531 C 13.582031 3.730469 11.976562 5.058594 12.882812 6.089844 C 13.546875 6.882812 14.253906 7.640625 14.972656 8.382812 C 15.8125 8.390625 16.65625 8.324219 17.496094 8.265625 Z M 17.496094 8.265625 " fill-opacity="1" fill-rule="nonzero"/></g></svg>