<svg xmlns="http://www.w3.org/2000/svg" xmlns:xlink="http://www.w3.org/1999/xlink" width="40" zoomAndPan="magnify" viewBox="0 0 30 30.000001" height="40" preserveAspectRatio="xMidYMid meet" version="1.0"><defs><clipPath id="b0738562eb"><path d="M 5.074219 1.453125 L 22.496094 1.453125 L 22.496094 27.566406 L 5.074219 27.566406 Z M 5.074219 1.453125 " clip-rule="nonzero"/></clipPath></defs><g clip-path="url(#b0738562eb)"><path fill="#393536" d="M 16.21875 13.019531 C 16.21875 13.019531 16.035156 12.964844 16.203125 12.339844 C 16.367188 11.71875 16.980469 10.417969 16.964844 9.648438 C 16.964844 9.648438 17.640625 10.40625 17.9375 10.574219 C 18.234375 10.738281 18.421875 10.601562 18.5625 10.40625 C 18.699219 10.214844 19.917969 9.042969 20.113281 8.695312 C 20.210938 8.515625 20.289062 8.4375 20.363281 8.390625 L 20.359375 8.390625 L 21.058594 7.792969 C 21.058594 7.792969 21.386719 7.570312 21.34375 7.320312 C 21.296875 7.066406 21.328125 6.875 21.140625 6.757812 C 20.953125 6.636719 20.394531 6.410156 20.394531 6.410156 C 20.394531 6.410156 20.257812 6.3125 20.085938 6.519531 C 19.910156 6.726562 19.785156 6.886719 19.785156 6.886719 C 19.785156 6.886719 19.671875 7.007812 19.707031 7.21875 C 19.738281 7.429688 19.75 7.382812 19.738281 7.429688 C 19.730469 7.476562 19.648438 7.957031 19.644531 7.988281 C 19.492188 8.203125 19.253906 8.421875 19.109375 8.472656 C 18.933594 8.539062 18.386719 9.035156 18.273438 9.132812 C 18.160156 9.234375 18.023438 8.742188 17.9375 8.613281 C 17.9375 8.613281 17.632812 7.816406 17.496094 7.425781 C 17.363281 7.039062 16.730469 5.878906 16.3125 5.6875 C 16.324219 5.472656 16.4375 5.21875 16.523438 5.15625 C 16.636719 5.078125 16.976562 5.109375 17.207031 5.050781 C 17.4375 4.988281 17.28125 4.785156 17.265625 4.734375 C 17.25 4.683594 17.296875 4.605469 17.386719 4.554688 C 17.476562 4.503906 17.390625 4.414062 17.363281 4.398438 C 17.335938 4.382812 17.34375 4.359375 17.417969 4.335938 C 17.492188 4.308594 17.4375 4.226562 17.4375 4.132812 C 17.4375 4.042969 17.507812 3.96875 17.683594 3.878906 C 17.859375 3.785156 17.570312 3.574219 17.429688 3.402344 C 17.289062 3.226562 17.355469 2.789062 17.355469 2.789062 C 17.355469 2.328125 16.921875 1.449219 15.886719 1.449219 C 14.71875 1.449219 14.066406 2.148438 14.066406 2.832031 C 14.066406 3.511719 14.347656 3.828125 14.492188 4.03125 C 14.609375 4.191406 14.59375 4.582031 14.582031 4.746094 L 14.558594 4.738281 C 14.558594 4.738281 14.277344 4.945312 13.855469 5.042969 C 13.433594 5.140625 12.035156 5.554688 10.695312 6.398438 C 10.695312 6.398438 9.359375 7.082031 8.824219 7.214844 C 8.824219 7.214844 8.503906 8.292969 8.6875 9.746094 C 8.6875 9.746094 8.867188 11.734375 8.589844 12.257812 L 8.171875 12.90625 C 8.171875 12.90625 7.929688 13.21875 8.054688 13.445312 C 8.175781 13.671875 8.207031 13.859375 8.425781 13.914062 C 8.640625 13.96875 9.242188 14.011719 9.242188 14.011719 C 9.242188 14.011719 9.402344 14.0625 9.503906 13.8125 C 9.601562 13.5625 9.671875 13.371094 9.671875 13.371094 C 9.671875 13.371094 9.738281 13.21875 9.640625 13.03125 C 9.539062 12.839844 9.546875 12.890625 9.539062 12.839844 C 9.535156 12.800781 9.46875 12.488281 9.445312 12.378906 C 9.46875 12.238281 9.636719 11.125 9.742188 10.757812 C 9.851562 10.367188 9.851562 10.367188 9.851562 10.367188 C 9.851562 10.367188 10.238281 8.78125 10.1875 8.535156 C 10.136719 8.292969 10.125 8.121094 10.433594 8.097656 C 10.746094 8.070312 11.882812 8.183594 12.332031 7.632812 C 12.332031 7.632812 12.972656 9.230469 13.296875 9.746094 C 13.617188 10.257812 13.304688 10.984375 12.914062 11.351562 C 12.914062 11.351562 11.59375 11.992188 11.984375 14.429688 C 11.984375 14.429688 12.046875 14.558594 11.882812 14.816406 C 11.714844 15.070312 11.054688 15.878906 10.726562 17.929688 C 10.699219 18.109375 10.578125 18.472656 10.359375 18.679688 C 9.847656 19.171875 9.40625 19.273438 8.601562 21.042969 C 8.265625 21.78125 7.125 23.15625 6.433594 23.582031 L 6.433594 23.578125 C 6.433594 23.578125 6.230469 23.671875 5.882812 23.609375 C 5.535156 23.546875 5.113281 23.433594 5.109375 24.007812 C 5.101562 24.582031 5.121094 25.71875 5.097656 25.980469 C 5.070312 26.242188 5.214844 26.664062 5.382812 26.851562 C 5.546875 27.042969 5.839844 27.5625 6.125 27.464844 C 6.410156 27.367188 6.382812 26.992188 6.25 26.730469 C 6.113281 26.46875 6.285156 26.011719 6.382812 25.773438 C 6.484375 25.535156 6.484375 25.535156 6.484375 25.535156 L 6.949219 24.289062 C 6.949219 24.289062 9.410156 22.730469 9.957031 22.273438 C 10.507812 21.8125 11.5625 20.828125 12.300781 20.292969 C 12.742188 19.972656 14.1875 17.488281 14.605469 16.015625 C 14.605469 16.015625 17.363281 16.417969 18.207031 16.34375 C 18.207031 16.34375 19.136719 16.242188 18.839844 16.539062 C 18.542969 16.832031 17.773438 17.316406 17.390625 18.039062 C 17.390625 18.039062 16.445312 19.242188 15.949219 19.558594 C 15.949219 19.558594 14.621094 20 14.777344 20.445312 C 14.933594 20.890625 15.675781 22.472656 15.949219 22.914062 C 16.21875 23.351562 16.664062 23.609375 16.839844 23.597656 C 17.011719 23.585938 17.050781 23.328125 16.839844 22.988281 C 16.839844 22.988281 16.664062 22.777344 16.695312 22.445312 C 16.722656 22.117188 16.859375 20.6875 16.859375 20.6875 C 16.859375 20.6875 17.019531 20.175781 17.445312 19.964844 C 17.875 19.753906 20.582031 17.457031 21.707031 16.730469 C 22.003906 16.542969 22.488281 16.4375 22.488281 15.679688 C 22.488281 15.121094 19.601562 13.261719 16.21875 13.019531 " fill-opacity="1" fill-rule="nonzero"/></g></svg>