<svg xmlns="http://www.w3.org/2000/svg" xmlns:xlink="http://www.w3.org/1999/xlink" width="300" zoomAndPan="magnify" viewBox="0 0 224.87999 36.750001" height="49" preserveAspectRatio="xMidYMid meet" version="1.0"><defs><g/></defs><g fill="#ffffff" fill-opacity="1"><g transform="translate(9.169124, 26.963325)"><g><path d="M 12.0625 -17.03125 L 14.203125 -17.03125 L 8.0625 0 L 6.109375 0 L 0 -17.03125 L 2.09375 -17.03125 L 6.015625 -6.015625 C 6.460938 -4.742188 6.816406 -3.507812 7.078125 -2.3125 C 7.359375 -3.570312 7.722656 -4.828125 8.171875 -6.078125 Z M 12.0625 -17.03125 "/></g></g><g transform="translate(23.373247, 26.963325)"><g><path d="M 11.84375 0 L 2.34375 0 L 2.34375 -17.03125 L 11.84375 -17.03125 L 11.84375 -15.265625 L 4.328125 -15.265625 L 4.328125 -9.78125 L 11.375 -9.78125 L 11.375 -8.03125 L 4.328125 -8.03125 L 4.328125 -1.765625 L 11.84375 -1.765625 Z M 11.84375 0 "/></g></g><g transform="translate(36.645187, 26.963325)"><g><path d="M 11.84375 0 L 2.34375 0 L 2.34375 -17.03125 L 11.84375 -17.03125 L 11.84375 -15.265625 L 4.328125 -15.265625 L 4.328125 -9.78125 L 11.375 -9.78125 L 11.375 -8.03125 L 4.328125 -8.03125 L 4.328125 -1.765625 L 11.84375 -1.765625 Z M 11.84375 0 "/></g></g><g transform="translate(49.917128, 26.963325)"><g><path d="M 15.9375 -8.671875 C 15.9375 -5.867188 15.171875 -3.722656 13.640625 -2.234375 C 12.117188 -0.742188 9.925781 0 7.0625 0 L 2.34375 0 L 2.34375 -17.03125 L 7.5625 -17.03125 C 10.207031 -17.03125 12.265625 -16.296875 13.734375 -14.828125 C 15.203125 -13.359375 15.9375 -11.304688 15.9375 -8.671875 Z M 13.84375 -8.609375 C 13.84375 -10.828125 13.285156 -12.5 12.171875 -13.625 C 11.054688 -14.75 9.398438 -15.3125 7.203125 -15.3125 L 4.328125 -15.3125 L 4.328125 -1.71875 L 6.734375 -1.71875 C 9.097656 -1.71875 10.875 -2.296875 12.0625 -3.453125 C 13.25 -4.617188 13.84375 -6.335938 13.84375 -8.609375 Z M 13.84375 -8.609375 "/></g></g><g transform="translate(67.313975, 26.963325)"><g><path d="M 15.203125 -17.03125 L 15.203125 -6.015625 C 15.203125 -4.066406 14.613281 -2.535156 13.4375 -1.421875 C 12.269531 -0.316406 10.660156 0.234375 8.609375 0.234375 C 6.554688 0.234375 4.96875 -0.320312 3.84375 -1.4375 C 2.726562 -2.5625 2.171875 -4.101562 2.171875 -6.0625 L 2.171875 -17.03125 L 4.140625 -17.03125 L 4.140625 -5.921875 C 4.140625 -4.492188 4.53125 -3.398438 5.3125 -2.640625 C 6.09375 -1.878906 7.234375 -1.5 8.734375 -1.5 C 10.171875 -1.5 11.273438 -1.878906 12.046875 -2.640625 C 12.828125 -3.410156 13.21875 -4.507812 13.21875 -5.9375 L 13.21875 -17.03125 Z M 15.203125 -17.03125 "/></g></g><g transform="translate(84.687516, 26.963325)"><g><path d="M 4.328125 -7.078125 L 4.328125 0 L 2.34375 0 L 2.34375 -17.03125 L 7.015625 -17.03125 C 9.097656 -17.03125 10.640625 -16.628906 11.640625 -15.828125 C 12.640625 -15.023438 13.140625 -13.820312 13.140625 -12.21875 C 13.140625 -9.96875 12 -8.445312 9.71875 -7.65625 L 14.34375 0 L 12 0 L 7.875 -7.078125 Z M 4.328125 -8.78125 L 7.03125 -8.78125 C 8.4375 -8.78125 9.460938 -9.054688 10.109375 -9.609375 C 10.765625 -10.171875 11.09375 -11.003906 11.09375 -12.109375 C 11.09375 -13.242188 10.757812 -14.054688 10.09375 -14.546875 C 9.425781 -15.046875 8.359375 -15.296875 6.890625 -15.296875 L 4.328125 -15.296875 Z M 4.328125 -8.78125 "/></g></g><g transform="translate(99.439296, 26.963325)"><g><path d="M 2.34375 0 L 2.34375 -17.03125 L 4.328125 -17.03125 L 4.328125 0 Z M 2.34375 0 "/></g></g><g transform="translate(106.092745, 26.963325)"><g><path d="M 13.046875 0 L 10.921875 -5.421875 L 4.09375 -5.421875 L 2 0 L 0 0 L 6.734375 -17.109375 L 8.40625 -17.109375 L 15.09375 0 Z M 10.3125 -7.203125 L 8.328125 -12.484375 C 8.078125 -13.148438 7.8125 -13.96875 7.53125 -14.9375 C 7.363281 -14.1875 7.117188 -13.367188 6.796875 -12.484375 L 4.796875 -7.203125 Z M 10.3125 -7.203125 "/></g></g></g><g fill="#ffffff" fill-opacity="1"><g transform="translate(121.195887, 26.963325)"><g><path d="M 16.28125 -8.671875 C 16.28125 -5.867188 15.476562 -3.722656 13.875 -2.234375 C 12.28125 -0.742188 9.976562 0 6.96875 0 L 2.140625 0 L 2.140625 -17.03125 L 7.484375 -17.03125 C 10.265625 -17.03125 12.425781 -16.296875 13.96875 -14.828125 C 15.507812 -13.359375 16.28125 -11.304688 16.28125 -8.671875 Z M 12.53125 -8.59375 C 12.53125 -12.25 10.910156 -14.078125 7.671875 -14.078125 L 5.75 -14.078125 L 5.75 -2.984375 L 7.296875 -2.984375 C 10.785156 -2.984375 12.53125 -4.851562 12.53125 -8.59375 Z M 12.53125 -8.59375 "/></g></g><g transform="translate(138.860736, 26.963325)"><g><path d="M 2.140625 0 L 2.140625 -17.03125 L 5.75 -17.03125 L 5.75 0 Z M 2.140625 0 "/></g></g><g transform="translate(146.760978, 26.963325)"><g><path d="M 8.609375 -9.5625 L 15.359375 -9.5625 L 15.359375 -0.734375 C 14.265625 -0.378906 13.234375 -0.128906 12.265625 0.015625 C 11.304688 0.160156 10.320312 0.234375 9.3125 0.234375 C 6.738281 0.234375 4.773438 -0.519531 3.421875 -2.03125 C 2.066406 -3.539062 1.390625 -5.710938 1.390625 -8.546875 C 1.390625 -11.285156 2.175781 -13.425781 3.75 -14.96875 C 5.320312 -16.507812 7.5 -17.28125 10.28125 -17.28125 C 12.03125 -17.28125 13.71875 -16.929688 15.34375 -16.234375 L 14.140625 -13.34375 C 12.898438 -13.957031 11.609375 -14.265625 10.265625 -14.265625 C 8.703125 -14.265625 7.453125 -13.738281 6.515625 -12.6875 C 5.578125 -11.644531 5.109375 -10.238281 5.109375 -8.46875 C 5.109375 -6.625 5.484375 -5.210938 6.234375 -4.234375 C 6.992188 -3.253906 8.097656 -2.765625 9.546875 -2.765625 C 10.296875 -2.765625 11.0625 -2.84375 11.84375 -3 L 11.84375 -6.5625 L 8.609375 -6.5625 Z M 8.609375 -9.5625 "/></g></g><g transform="translate(164.041301, 26.963325)"><g><path d="M 2.140625 0 L 2.140625 -17.03125 L 5.75 -17.03125 L 5.75 0 Z M 2.140625 0 "/></g></g><g transform="translate(171.941544, 26.963325)"><g><path d="M 8.71875 0 L 5.109375 0 L 5.109375 -14.03125 L 0.484375 -14.03125 L 0.484375 -17.03125 L 13.34375 -17.03125 L 13.34375 -14.03125 L 8.71875 -14.03125 Z M 8.71875 0 "/></g></g><g transform="translate(185.761142, 26.963325)"><g><path d="M 12.578125 0 L 11.328125 -4.046875 L 5.125 -4.046875 L 3.890625 0 L 0 0 L 6.015625 -17.109375 L 10.421875 -17.109375 L 16.46875 0 Z M 10.46875 -7.078125 C 9.332031 -10.753906 8.691406 -12.832031 8.546875 -13.3125 C 8.398438 -13.789062 8.296875 -14.171875 8.234375 -14.453125 C 7.984375 -13.460938 7.25 -11.003906 6.03125 -7.078125 Z M 10.46875 -7.078125 "/></g></g><g transform="translate(202.225806, 26.963325)"><g><path d="M 2.140625 0 L 2.140625 -17.03125 L 5.75 -17.03125 L 5.75 -2.984375 L 12.65625 -2.984375 L 12.65625 0 Z M 2.140625 0 "/></g></g></g></svg>